<?xml version="1.0" encoding="UTF-8" standalone="no"?><!DOCTYPE svg PUBLIC "-//W3C//DTD SVG 1.1//EN" "http://www.w3.org/Graphics/SVG/1.1/DTD/svg11.dtd"><svg width="100%" height="100%" viewBox="0 0 2451 951" version="1.1" xmlns="http://www.w3.org/2000/svg" xmlns:xlink="http://www.w3.org/1999/xlink" xml:space="preserve" xmlns:serif="http://www.serif.com/" style="fill-rule:evenodd;clip-rule:evenodd;stroke-linejoin:round;stroke-miterlimit:2;"><g id="Logo"><path d="M2450,366.667c0,-97.246 -38.631,-190.509 -107.394,-259.273c-68.763,-68.763 -162.026,-107.394 -259.272,-107.394c-462.734,0 -1253.93,-0 -1716.67,0c-97.246,0 -190.51,38.631 -259.273,107.394c-68.763,68.764 -107.394,162.027 -107.394,259.273c0,71.082 0,145.584 0,216.666c-0,97.246 38.631,190.509 107.394,259.273c68.763,68.763 162.027,107.394 259.273,107.394c462.733,0 1253.93,0 1716.67,0c97.246,0 190.509,-38.631 259.272,-107.394c68.763,-68.764 107.394,-162.027 107.394,-259.273c0,-71.082 0,-145.584 0,-216.666Z" style="fill:#fff;"/><g><path d="M419.076,273.373l-39.551,-0l-0,-49.219l39.551,-0l-0,49.219Zm-0.586,347.46l-38.379,0l-0,-285.058l38.379,-0l-0,285.058Z" style="fill:#3a6ede;fill-rule:nonzero;"/><rect x="480.892" y="427.767" width="120.703" height="36.328" style="fill:#3a6ede;fill-rule:nonzero;"/><path d="M825.423,559.603c0,17.578 -5.761,32.178 -17.285,43.799c-11.523,11.621 -25.976,17.431 -43.359,17.431l-64.16,0l-0,108.106l-38.965,-0l-0,-393.164l38.965,-0l-0,7.91c15.429,-1.953 30.859,-3.906 46.289,-5.859c19.531,-2.539 34.863,-3.809 45.996,-3.809c21.679,0 32.519,10.645 32.519,31.934l0,193.652Zm-38.965,-5.859l0,-183.106l-85.839,2.344l-0,213.574l53.906,0c21.289,0 31.933,-10.937 31.933,-32.812Z" style="fill:#3a6ede;fill-rule:nonzero;"/><path d="M990.365,620.833l-55.371,0c-21.875,0 -32.813,-11.035 -32.813,-33.105l0,-217.676l-34.277,0l-0,-34.277l34.277,-0l0,-88.77l38.379,0l0,88.77l49.805,-0l-0,34.277l-49.805,0l0,216.504l49.805,0l-0,34.277Z" style="fill:#3a6ede;fill-rule:nonzero;"/><path d="M1189.29,429.525l-38.378,-0l-0,-58.887l-71.778,2.344l0,247.851l-38.965,0l0,-285.058l38.965,-0l0,7.91c12.891,-1.953 25.879,-4.004 38.965,-6.152c15.625,-2.344 28.613,-3.516 38.965,-3.516c21.484,0 32.226,10.645 32.226,31.934l0,63.574Z" style="fill:#3a6ede;fill-rule:nonzero;"/><rect x="1234.41" y="569.271" width="44.531" height="51.563" style="fill:#3a6ede;fill-rule:nonzero;"/><path d="M1496.62,587.728c-0,22.07 -10.938,33.105 -32.813,33.105l-92.578,0c-21.875,0 -32.812,-11.035 -32.812,-33.105l-0,-218.848c-0,-22.07 10.937,-33.105 32.812,-33.105l92.578,-0c21.875,-0 32.813,11.035 32.813,33.105l-0,56.836l-38.379,0l-0,-55.664l-80.86,0l0,216.504l80.86,0l-0,-63.574l38.379,-0l-0,64.746Z" style="fill:#3a6ede;fill-rule:nonzero;"/><path d="M1723.66,587.728c0,22.07 -11.035,33.105 -33.105,33.105l-97.852,0c-21.875,0 -32.812,-11.035 -32.812,-33.105l-0,-218.848c-0,-22.07 10.937,-33.105 32.812,-33.105l97.852,-0c22.07,-0 33.105,11.035 33.105,33.105l0,218.848Zm-38.964,-1.172l-0,-216.504l-85.84,0l-0,216.504l85.84,0Z" style="fill:#3a6ede;fill-rule:nonzero;"/><path d="M2073.76,620.833l-38.965,0l0,-250.195l-84.961,2.344l0,247.851l-38.672,0l0,-250.195l-84.96,2.344l-0,247.851l-38.965,0l-0,-285.058l38.965,-0l-0,7.91c15.234,-1.953 30.468,-4.004 45.703,-6.152c18.554,-2.344 33.886,-3.516 45.996,-3.516c11.914,0 20.703,3.613 26.367,10.84c16.406,-2.149 32.715,-4.395 48.926,-6.738c21.289,-2.735 37.402,-4.102 48.34,-4.102c21.484,0 32.226,10.645 32.226,31.934l0,254.882Z" style="fill:#3a6ede;fill-rule:nonzero;"/></g></g></svg>